<svg 
 xmlns="http://www.w3.org/2000/svg"
 xmlns:xlink="http://www.w3.org/1999/xlink"
 width="47px" height="45px">
<path fill-rule="evenodd"  fill="rgb(0, 0, 0)"
 d="M39.555,17.211 C36.710,16.870 33.866,15.543 31.588,13.233 C28.688,10.292 27.351,6.420 27.614,2.801 C34.894,-0.996 42.569,-0.996 46.652,3.146 C48.007,4.519 45.094,10.429 39.555,17.211 ZM38.958,3.458 C38.331,2.822 37.314,2.822 36.688,3.458 C36.061,4.094 36.061,5.125 36.688,5.762 C37.314,6.396 38.331,6.396 38.957,5.760 C39.584,5.125 39.584,4.094 38.958,3.458 ZM37.570,19.552 C36.611,20.639 35.595,21.733 34.524,22.827 L34.264,26.608 C34.209,27.418 33.862,28.178 33.297,28.752 L32.562,29.497 C32.276,29.786 31.868,29.907 31.475,29.812 C31.083,29.715 30.772,29.424 30.648,29.035 L29.960,26.884 C23.828,31.637 16.767,34.793 12.697,35.473 L9.712,44.280 C9.577,44.675 9.220,44.949 8.807,44.971 C8.396,44.994 8.011,44.761 7.835,44.383 L6.055,40.549 C5.706,39.799 5.112,39.195 4.372,38.842 L0.591,37.036 C0.218,36.858 -0.011,36.469 0.011,36.049 C0.032,35.631 0.302,35.269 0.693,35.133 L9.363,32.109 C9.658,29.181 10.741,24.557 12.737,19.838 L10.745,18.780 C9.954,18.358 9.404,17.578 9.268,16.682 C9.133,15.785 9.420,14.872 10.053,14.230 L18.833,5.324 C19.703,4.443 21.042,4.243 22.131,4.821 L23.379,5.488 C23.905,5.090 24.437,4.713 24.975,4.358 C25.141,8.180 26.743,12.070 29.738,15.108 C32.000,17.403 34.741,18.887 37.570,19.552 Z"/>
</svg>