<svg 
 xmlns="http://www.w3.org/2000/svg"
 xmlns:xlink="http://www.w3.org/1999/xlink"
 width="517px" height="613px">
<path fill-rule="evenodd"  fill="rgb(0, 0, 0)"
 d="M446.460,236.610 L381.967,236.610 L381.967,226.066 C402.972,210.509 416.618,185.555 416.618,157.468 C416.618,115.859 386.678,81.109 347.210,73.632 C335.738,31.275 297.089,0.501 251.427,0.500 C226.155,0.501 201.901,10.273 183.666,27.277 C177.156,25.574 170.423,24.698 163.656,24.698 C131.482,24.698 103.416,44.218 91.189,72.288 C89.521,72.190 87.844,72.141 86.164,72.141 C39.115,72.141 0.838,110.418 0.838,157.467 C0.838,183.373 12.457,206.601 30.740,222.262 L30.740,575.159 C30.740,595.696 47.543,612.499 68.080,612.499 L344.626,612.499 C365.163,612.499 381.967,595.696 381.967,575.159 L381.967,520.393 L446.460,520.393 C484.894,520.393 516.162,489.124 516.162,450.692 L516.162,306.310 C516.162,267.877 484.894,236.610 446.460,236.610 ZM331.292,195.497 L112.808,195.497 L112.808,271.485 C112.808,284.546 102.219,295.134 89.159,295.134 C76.098,295.134 65.510,284.546 65.510,271.485 L65.510,189.373 C55.063,182.587 48.136,170.825 48.136,157.467 C48.136,136.498 65.195,119.439 86.164,119.439 C90.884,119.439 95.503,120.303 99.895,122.005 C106.910,124.725 114.801,123.946 121.148,119.903 C127.495,115.860 131.539,109.040 132.040,101.533 C133.146,84.970 147.034,71.996 163.656,71.996 C169.078,71.996 174.217,73.315 178.928,75.915 C189.352,81.668 202.428,78.774 209.451,69.160 C219.369,55.584 234.668,47.798 251.427,47.798 C279.154,47.798 301.942,69.465 303.307,97.125 C303.619,103.473 306.475,109.429 311.229,113.647 C315.982,117.867 322.234,120.000 328.575,119.552 C329.675,119.475 330.539,119.440 331.292,119.440 C352.261,119.440 369.320,136.499 369.320,157.468 C369.320,178.437 352.261,195.497 331.292,195.497 ZM451.439,450.693 C451.439,453.345 449.112,455.672 446.460,455.672 L381.967,455.672 L381.967,301.332 L446.460,301.332 C449.112,301.332 451.439,303.659 451.439,306.311 L451.439,450.693 Z"/>
</svg>