<svg 
 xmlns="http://www.w3.org/2000/svg"
 xmlns:xlink="http://www.w3.org/1999/xlink"
 width="47px" height="24px">
<path fill-rule="evenodd"  fill="rgb(0, 0, 0)"
 d="M39.360,4.102 C39.347,4.094 39.336,4.085 39.323,4.077 C39.035,3.884 38.663,3.873 38.365,4.051 C38.067,4.228 37.895,4.562 37.921,4.913 C38.130,7.797 37.913,10.387 37.698,12.043 C37.677,12.195 37.552,12.311 37.400,12.316 C37.248,12.322 37.116,12.214 37.086,12.063 C36.220,7.609 34.520,3.772 33.455,1.660 C33.339,1.432 33.137,1.263 32.894,1.194 C30.085,0.393 27.480,0.113 25.862,0.025 C25.577,0.008 25.301,0.131 25.117,0.355 C24.934,0.578 24.866,0.877 24.932,1.159 C25.920,5.344 25.657,9.962 25.419,12.308 C25.403,12.459 25.286,12.577 25.138,12.590 C24.991,12.604 24.854,12.508 24.813,12.364 C24.035,9.619 22.270,3.789 20.523,0.755 C20.345,0.446 20.007,0.269 19.657,0.302 C17.286,0.527 15.006,0.874 12.974,1.809 C12.973,1.809 12.973,1.809 12.972,1.809 C12.570,1.809 12.331,2.249 12.397,2.681 C12.989,6.478 12.715,10.013 12.442,12.110 C12.421,12.263 12.297,12.345 12.144,12.350 C11.993,12.355 11.860,12.231 11.830,12.079 C11.271,9.200 10.360,6.569 9.498,4.502 C9.373,4.201 9.127,3.966 8.821,3.863 C8.516,3.759 8.183,3.792 7.905,3.957 C2.434,7.184 -0.008,10.961 -0.008,14.816 C-0.008,23.017 10.516,23.989 23.498,23.989 C36.480,23.989 47.005,23.017 47.005,14.816 C47.006,11.282 44.837,7.804 39.360,4.102 Z"/>
</svg>