<svg 
 xmlns="http://www.w3.org/2000/svg"
 xmlns:xlink="http://www.w3.org/1999/xlink"
 width="5px" height="32px">
<path fill-rule="evenodd"  fill="rgb(0, 0, 0)"
 d="M108.000,496.000 C-0.001,496.000 -0.001,476.258 -0.001,465.655 L-0.001,210.914 C-0.001,197.532 5.600,184.616 15.367,175.470 C35.986,156.160 47.809,128.889 47.809,100.638 L47.809,90.043 C47.809,76.106 59.143,64.760 73.076,64.760 L142.924,64.760 C156.855,64.760 168.190,76.106 168.190,90.043 L168.190,100.638 C168.190,128.889 180.014,156.169 200.633,175.470 C210.399,184.616 216.000,197.532 216.001,210.914 L216.001,465.655 C216.001,476.258 216.001,496.000 108.000,496.000 ZM182.553,210.914 C182.553,206.771 180.815,202.764 177.786,199.928 C150.429,174.317 134.744,138.129 134.744,100.639 L134.744,98.245 L81.257,98.245 L81.257,100.639 C81.257,138.120 65.570,174.308 38.215,199.928 C35.184,202.764 33.446,206.771 33.446,210.914 L33.446,232.226 L182.553,232.226 L182.553,210.914 ZM154.773,47.438 L61.218,47.438 C52.799,47.438 45.980,40.612 45.979,32.185 L45.979,15.254 C45.979,6.826 52.799,0.000 61.218,0.000 L154.773,0.000 C163.192,0.000 170.010,6.826 170.010,15.254 L170.010,32.185 C170.010,40.613 163.192,47.438 154.773,47.438 Z"/>
</svg>