<svg 
 xmlns="http://www.w3.org/2000/svg"
 xmlns:xlink="http://www.w3.org/1999/xlink"
 width="494px" height="488px">
<path fill-rule="evenodd"  fill="rgb(0, 0, 0)"
 d="M395.499,284.520 C372.658,183.098 313.056,36.427 158.106,0.453 C151.821,-1.000 145.188,1.449 141.365,6.707 C140.530,7.858 139.872,9.097 139.374,10.385 C111.188,9.291 72.532,32.109 42.121,70.586 C17.703,101.488 6.318,153.490 1.184,188.614 C-0.000,196.670 3.190,204.741 9.571,209.787 C15.952,214.841 24.558,216.097 32.124,213.096 C65.101,199.988 113.065,176.888 137.513,145.980 C152.446,127.087 163.244,107.131 169.475,88.494 C186.970,136.900 203.886,207.790 192.480,283.393 C187.290,282.586 181.971,282.164 176.554,282.164 C119.714,282.164 73.629,328.242 73.629,385.086 C73.629,441.928 119.713,488.000 176.554,488.000 C233.363,488.000 279.465,441.928 279.465,385.086 C279.465,345.331 256.912,310.847 223.922,293.702 C241.958,188.511 208.879,92.801 186.394,43.194 C295.857,87.588 342.761,204.395 362.718,289.272 C322.181,302.251 292.824,340.238 292.824,385.086 C292.824,440.643 337.866,485.670 393.413,485.670 C448.973,485.670 494.000,440.643 494.000,385.086 C493.998,330.228 450.094,285.633 395.499,284.520 ZM178.938,331.827 C156.048,333.624 139.548,343.357 129.898,360.755 C122.212,374.612 121.553,388.501 121.547,388.640 C121.309,396.490 114.871,402.655 107.074,402.655 C106.924,402.655 106.773,402.653 106.622,402.648 C98.622,402.404 92.334,395.682 92.577,387.681 C92.639,385.661 93.477,367.388 103.870,347.942 C113.871,329.229 134.618,306.230 176.670,302.929 C184.640,302.301 191.628,308.264 192.253,316.244 C192.879,324.223 186.919,331.200 178.938,331.827 ZM396.559,331.827 C373.668,333.624 357.168,343.357 347.518,360.755 C339.832,374.612 339.174,388.501 339.168,388.640 C338.930,396.490 332.492,402.655 324.694,402.655 C324.544,402.655 324.393,402.653 324.242,402.648 C316.242,402.404 309.954,395.682 310.198,387.681 C310.260,385.661 311.097,367.388 321.491,347.942 C331.491,329.229 352.239,306.230 394.291,302.929 C402.260,302.301 409.248,308.264 409.874,316.244 C410.499,324.223 404.538,331.200 396.559,331.827 Z"/>
</svg>