<svg 
 xmlns="http://www.w3.org/2000/svg"
 xmlns:xlink="http://www.w3.org/1999/xlink"
 width="612px" height="606px">
<path fill-rule="evenodd"  fill="rgb(0, 0, 0)"
 d="M534.674,303.000 L608.890,174.495 C613.000,167.382 613.000,158.613 608.890,151.500 L528.033,11.497 C523.924,4.384 516.333,-0.000 508.113,-0.000 L346.393,-0.000 C338.173,-0.000 330.583,4.384 326.473,11.497 L252.256,140.002 L103.887,140.002 C95.667,140.002 88.076,144.387 83.967,151.500 L3.110,291.502 C-1.000,298.616 -1.000,307.384 3.110,314.497 L83.967,454.500 C88.076,461.613 95.667,465.998 103.887,465.998 L252.256,465.998 L326.473,594.503 C330.582,601.616 338.173,606.000 346.393,606.000 L508.113,606.000 C516.333,606.000 523.924,601.616 528.033,594.503 L608.890,454.500 C613.000,447.387 613.000,438.618 608.890,431.505 L534.674,303.000 ZM235.571,231.504 L139.707,231.504 L98.415,303.000 L146.347,385.990 C152.699,396.988 148.930,411.052 137.928,417.402 C134.306,419.493 130.350,420.486 126.448,420.486 C118.499,420.486 110.767,416.362 106.506,408.985 L51.934,314.497 C47.824,307.384 47.824,298.616 51.934,291.502 L106.506,197.014 C110.616,189.901 118.207,185.517 126.427,185.517 L235.571,185.517 C248.275,185.517 258.574,195.813 258.574,208.512 C258.574,221.211 248.275,231.504 235.571,231.504 ZM379.744,514.201 C386.096,525.199 382.327,539.263 371.325,545.612 C367.703,547.703 363.747,548.697 359.845,548.697 C351.895,548.697 344.167,544.573 339.903,537.196 L291.441,453.289 C287.331,446.176 287.331,437.407 291.441,430.294 L339.903,346.387 C346.252,335.386 360.327,331.618 371.325,337.971 C382.327,344.320 386.096,358.384 379.744,369.382 L337.922,441.792 L379.744,514.201 ZM473.244,88.913 L384.468,88.913 L340.081,165.769 C335.821,173.146 328.089,177.269 320.139,177.269 C316.238,177.269 312.281,176.276 308.659,174.185 C297.658,167.835 293.888,153.772 300.240,142.774 L351.267,54.421 C355.376,47.308 362.968,42.923 371.187,42.923 L473.244,42.923 C485.950,42.923 496.246,53.219 496.246,65.918 C496.246,78.618 485.947,88.913 473.244,88.913 Z"/>
</svg>