<svg 
 xmlns="http://www.w3.org/2000/svg"
 xmlns:xlink="http://www.w3.org/1999/xlink"
 width="612px" height="447px">
<path fill-rule="evenodd"  fill="rgb(0, 0, 0)"
 d="M531.791,411.827 C474.316,440.898 399.834,447.000 347.470,447.000 C193.229,447.000 118.250,395.088 118.250,288.294 C118.250,270.580 120.282,253.338 124.102,236.767 C138.048,275.886 161.469,313.553 177.845,334.522 C201.478,364.784 237.069,382.142 275.489,382.142 C303.329,382.142 329.662,373.057 351.644,355.873 C405.428,313.817 415.004,235.811 372.982,181.990 C343.886,144.723 268.851,110.563 208.830,105.780 C247.357,76.406 295.406,58.931 347.470,58.931 C469.800,58.931 612.000,159.123 612.000,288.294 C612.000,344.120 585.764,384.529 531.791,411.827 ZM344.762,204.034 C374.633,242.298 367.828,297.750 329.594,327.647 C313.970,339.861 295.260,346.318 275.486,346.318 C248.165,346.318 222.859,333.982 206.061,312.469 C190.711,292.812 168.452,256.861 156.245,220.226 C149.534,200.090 140.993,164.181 159.174,149.970 C166.674,144.105 179.052,141.006 194.974,141.006 C249.142,141.006 322.613,175.664 344.762,204.034 ZM137.129,121.744 C124.271,131.798 111.858,149.638 112.480,180.931 L62.047,130.363 C57.664,131.652 53.091,132.313 48.441,132.313 C21.729,132.313 -0.000,110.544 -0.000,83.786 C-0.000,60.760 16.091,41.428 37.598,36.480 C42.957,15.531 61.966,0.000 84.526,0.000 C111.236,0.000 132.963,21.769 132.963,48.521 C132.963,53.201 132.301,57.793 131.009,62.197 L175.261,106.576 C159.932,108.846 147.148,113.911 137.129,121.744 Z"/>
</svg>