<svg 
 xmlns="http://www.w3.org/2000/svg"
 xmlns:xlink="http://www.w3.org/1999/xlink"
 width="25px" height="21px">
<path fill-rule="evenodd"  fill="rgb(0, 0, 0)"
 d="M24.683,6.382 C24.700,6.745 24.646,7.104 24.525,7.439 C23.863,9.253 22.521,9.878 21.224,10.482 C20.308,10.908 19.443,11.312 18.767,12.135 C17.978,13.097 17.575,13.814 17.181,14.508 C16.613,15.513 16.078,16.460 14.592,17.933 C12.894,19.614 10.811,20.503 8.568,20.503 C5.351,20.503 2.072,18.582 0.939,16.035 C0.516,15.081 0.306,14.103 0.311,13.152 L0.311,10.519 C0.311,10.519 0.322,10.509 0.324,10.507 C0.330,9.637 0.503,8.788 0.870,8.000 C1.858,5.875 4.093,4.255 7.331,3.317 C9.478,2.697 11.001,2.621 12.226,2.560 C13.170,2.513 13.915,2.476 14.695,2.217 L15.638,1.901 C17.535,1.261 19.497,0.599 21.046,0.503 C22.284,0.430 23.366,0.974 24.064,1.972 C24.461,2.539 24.652,3.180 24.665,3.805 C24.671,3.813 24.681,3.819 24.689,3.831 L24.683,6.382 ZM22.984,2.726 C22.577,2.145 21.952,1.812 21.265,1.812 L21.127,1.816 C19.752,1.901 17.874,2.535 16.058,3.148 L15.109,3.466 C14.160,3.781 13.293,3.825 12.290,3.874 C11.073,3.935 9.696,4.003 7.697,4.582 C4.835,5.411 2.887,6.785 2.064,8.555 C1.288,10.225 1.678,11.820 2.142,12.865 C2.947,14.676 5.571,16.551 8.567,16.551 C10.456,16.551 12.218,15.795 13.664,14.361 C15.021,13.017 15.491,12.187 16.033,11.226 C16.453,10.481 16.888,9.713 17.748,8.664 C18.615,7.608 19.705,7.100 20.666,6.652 C21.866,6.094 22.812,5.652 23.287,4.351 C23.463,3.868 23.347,3.245 22.984,2.726 ZM20.111,5.457 C19.077,5.939 17.788,6.539 16.730,7.827 C15.796,8.966 15.312,9.822 14.885,10.580 C14.370,11.491 13.963,12.211 12.738,13.423 C11.527,14.625 10.124,15.234 8.568,15.234 C6.140,15.234 3.967,13.726 3.346,12.329 C2.992,11.534 2.690,10.330 3.257,9.109 C3.916,7.694 5.578,6.566 8.064,5.846 C9.914,5.311 11.210,5.246 12.359,5.189 C13.412,5.136 14.404,5.087 15.525,4.715 L16.482,4.394 C18.215,3.809 20.008,3.204 21.265,3.127 C21.605,3.127 21.812,3.348 21.904,3.480 C22.033,3.662 22.062,3.848 22.050,3.899 C21.786,4.626 21.359,4.875 20.111,5.457 ZM8.451,7.925 C6.734,7.925 5.343,8.901 5.343,10.107 C5.343,11.312 6.734,12.288 8.451,12.288 C10.167,12.288 11.558,11.312 11.558,10.107 C11.558,8.901 10.167,7.925 8.451,7.925 Z"/>
</svg>