<svg 
 xmlns="http://www.w3.org/2000/svg"
 xmlns:xlink="http://www.w3.org/1999/xlink"
 width="431px" height="612px">
<path fill-rule="evenodd"  fill="rgb(0, 0, 0)"
 d="M320.802,612.000 L110.196,612.000 C49.337,612.000 0.000,562.668 0.000,501.806 L0.000,219.514 C0.000,170.081 32.551,128.248 77.397,114.286 L77.397,79.507 L353.605,79.507 L353.605,114.286 C398.446,128.254 431.000,167.618 431.000,219.514 L431.000,501.806 C431.000,562.670 381.661,612.000 320.802,612.000 ZM377.125,317.022 L309.635,317.022 C292.418,282.454 256.745,258.694 215.500,258.694 C174.255,258.694 138.579,282.454 121.363,317.022 L53.875,317.022 L53.875,507.895 L377.125,507.895 L377.125,317.022 ZM357.327,61.145 L73.671,61.145 C56.784,61.145 43.100,47.457 43.098,30.569 C43.098,13.688 56.782,-0.000 73.671,-0.000 L357.327,-0.000 C374.213,-0.000 387.898,13.686 387.898,30.569 C387.898,47.457 374.216,61.145 357.327,61.145 Z"/>
</svg>