<svg 
 xmlns="http://www.w3.org/2000/svg"
 xmlns:xlink="http://www.w3.org/1999/xlink"
 width="382px" height="612px">
<path fill-rule="evenodd"  fill="rgb(0, 0, 0)"
 d="M190.987,-0.000 C274.777,-0.000 353.019,101.579 366.672,228.216 L15.327,228.216 C28.976,101.579 107.196,-0.000 190.987,-0.000 ZM325.889,420.798 C315.234,433.166 303.439,443.958 290.842,453.054 L91.125,453.054 C78.528,443.955 66.733,433.162 56.081,420.792 C19.918,378.796 0.001,324.277 0.001,267.280 L381.999,267.280 C381.999,324.279 362.072,378.800 325.889,420.798 ZM103.395,492.763 C103.584,492.544 103.778,492.335 103.967,492.117 L278.049,492.117 C278.239,492.336 278.435,492.548 278.625,492.769 C297.940,515.198 310.113,543.132 313.829,572.936 L347.636,572.936 L347.636,612.000 L34.366,612.000 L34.366,572.936 L68.173,572.936 C71.891,543.131 84.069,515.196 103.395,492.763 Z"/>
</svg>