<svg xmlns="http://www.w3.org/2000/svg" width="517" height="613"><path fill-rule="evenodd" d="M446.46 236.61h-64.493v-10.544c21.005-15.557 34.651-40.511 34.651-68.598 0-41.609-29.94-76.359-69.408-83.836C335.738 31.275 297.089.501 251.427.5c-25.272.001-49.526 9.773-67.761 26.777a79.122 79.122 0 0 0-20.01-2.579c-32.174 0-60.24 19.52-72.467 47.59a85.708 85.708 0 0 0-5.025-.147c-47.049 0-85.326 38.277-85.326 85.326 0 25.906 11.619 49.134 29.902 64.795v352.897c0 20.537 16.803 37.34 37.34 37.34h276.546c20.537 0 37.341-16.803 37.341-37.34v-54.766h64.493c38.434 0 69.702-31.269 69.702-69.701V306.31c0-38.433-31.268-69.7-69.702-69.7zm-115.168-41.113H112.808v75.988c0 13.061-10.589 23.649-23.649 23.649-13.061 0-23.649-10.588-23.649-23.649v-82.112c-10.447-6.786-17.374-18.548-17.374-31.906 0-20.969 17.059-38.028 38.028-38.028 4.72 0 9.339.864 13.731 2.566a23.646 23.646 0 0 0 32.145-20.472c1.106-16.563 14.994-29.537 31.616-29.537 5.422 0 10.561 1.319 15.272 3.919 10.424 5.753 23.5 2.859 30.523-6.755 9.918-13.576 25.217-21.362 41.976-21.362 27.727 0 50.515 21.667 51.88 49.327a23.64 23.64 0 0 0 7.922 16.522 23.623 23.623 0 0 0 17.346 5.905c1.1-.077 1.964-.112 2.717-.112 20.969 0 38.028 17.059 38.028 38.028 0 20.969-17.059 38.029-38.028 38.029zm120.147 255.196c0 2.652-2.327 4.979-4.979 4.979h-64.493v-154.34h64.493c2.652 0 4.979 2.327 4.979 4.979v144.382z"/></svg>