<svg xmlns="http://www.w3.org/2000/svg" width="431" height="612"><path fill-rule="evenodd" d="M320.802 612H110.196C49.337 612 0 562.668 0 501.806V219.514c0-49.433 32.551-91.266 77.397-105.228V79.507h276.208v34.779C398.446 128.254 431 167.618 431 219.514v282.292C431 562.67 381.661 612 320.802 612zm56.323-294.978h-67.49c-17.217-34.568-52.89-58.328-94.135-58.328-41.245 0-76.921 23.76-94.137 58.328H53.875v190.873h323.25V317.022zM357.327 61.145H73.671c-16.887 0-30.571-13.688-30.573-30.576C43.098 13.688 56.782 0 73.671 0h283.656c16.886 0 30.571 13.686 30.571 30.569 0 16.888-13.682 30.576-30.571 30.576z"/></svg>