<svg xmlns="http://www.w3.org/2000/svg" width="612" height="447"><path fill-rule="evenodd" d="M531.791 411.827C474.316 440.898 399.834 447 347.47 447c-154.241 0-229.22-51.912-229.22-158.706 0-17.714 2.032-34.956 5.852-51.527 13.946 39.119 37.367 76.786 53.743 97.755 23.633 30.262 59.224 47.62 97.644 47.62 27.84 0 54.173-9.085 76.155-26.269 53.784-42.056 63.36-120.062 21.338-173.883-29.096-37.267-104.131-71.427-164.152-76.21 38.527-29.374 86.576-46.849 138.64-46.849C469.8 58.931 612 159.123 612 288.294c0 55.826-26.236 96.235-80.209 123.533zM344.762 204.034c29.871 38.264 23.066 93.716-15.168 123.613-15.624 12.214-34.334 18.671-54.108 18.671-27.321 0-52.627-12.336-69.425-33.849-15.35-19.657-37.609-55.608-49.816-92.243-6.711-20.136-15.252-56.045 2.929-70.256 7.5-5.865 19.878-8.964 35.8-8.964 54.168 0 127.639 34.658 149.788 63.028zm-207.633-82.29c-12.858 10.054-25.271 27.894-24.649 59.187l-50.433-50.568a48.178 48.178 0 0 1-13.606 1.95C21.729 132.313 0 110.544 0 83.786 0 60.76 16.091 41.428 37.598 36.48 42.957 15.531 61.966 0 84.526 0c26.71 0 48.437 21.769 48.437 48.521 0 4.68-.662 9.272-1.954 13.676l44.252 44.379c-15.329 2.27-28.113 7.335-38.132 15.168z"/></svg>