<svg xmlns="http://www.w3.org/2000/svg" width="47" height="45"><path fill-rule="evenodd" d="M39.555 17.211c-2.845-.341-5.689-1.668-7.967-3.978-2.9-2.941-4.237-6.813-3.974-10.432 7.28-3.797 14.955-3.797 19.038.345 1.355 1.373-1.558 7.283-7.097 14.065zm-.597-13.753a1.589 1.589 0 0 0-2.27 0 1.646 1.646 0 0 0 0 2.304 1.59 1.59 0 0 0 2.269-.002 1.645 1.645 0 0 0 .001-2.302zM37.57 19.552a86.321 86.321 0 0 1-3.046 3.275l-.26 3.781a3.387 3.387 0 0 1-.967 2.144l-.735.745c-.286.289-.694.41-1.087.315a1.157 1.157 0 0 1-.827-.777l-.688-2.151c-6.132 4.753-13.193 7.909-17.263 8.589L9.712 44.28a1.016 1.016 0 0 1-.905.691 1.013 1.013 0 0 1-.972-.588l-1.78-3.834a3.542 3.542 0 0 0-1.683-1.707L.591 37.036a1.03 1.03 0 0 1-.58-.987c.021-.418.291-.78.682-.916l8.67-3.024c.295-2.928 1.378-7.552 3.374-12.271l-1.992-1.058a2.866 2.866 0 0 1-1.477-2.098 2.882 2.882 0 0 1 .785-2.452l8.78-8.906a2.791 2.791 0 0 1 3.298-.503l1.248.667a30.336 30.336 0 0 1 1.596-1.13c.166 3.822 1.768 7.712 4.763 10.75 2.262 2.295 5.003 3.779 7.832 4.444z"/></svg>