<svg xmlns="http://www.w3.org/2000/svg" width="5" height="32"><path fill-rule="evenodd" d="M108 496C-.001 496-.001 476.258-.001 465.655V210.914c0-13.382 5.601-26.298 15.368-35.444 20.619-19.31 32.442-46.581 32.442-74.832V90.043c0-13.937 11.334-25.283 25.267-25.283h69.848c13.931 0 25.266 11.346 25.266 25.283v10.595c0 28.251 11.824 55.531 32.443 74.832 9.766 9.146 15.367 22.062 15.368 35.444v254.741c0 10.603 0 30.345-108.001 30.345zm74.553-285.086a15.11 15.11 0 0 0-4.767-10.986c-27.357-25.611-43.042-61.799-43.042-99.289v-2.394H81.257v2.394c0 37.481-15.687 73.669-43.042 99.289a15.104 15.104 0 0 0-4.769 10.986v21.312h149.107v-21.312zm-27.78-163.476H61.218c-8.419 0-15.238-6.826-15.239-15.253V15.254C45.979 6.826 52.799 0 61.218 0h93.555c8.419 0 15.237 6.826 15.237 15.254v16.931c0 8.428-6.818 15.253-15.237 15.253z"/></svg>