<svg xmlns="http://www.w3.org/2000/svg" width="382" height="612"><path fill-rule="evenodd" d="M190.987 0c83.79 0 162.032 101.579 175.685 228.216H15.327C28.976 101.579 107.196 0 190.987 0zm134.902 420.798c-10.655 12.368-22.45 23.16-35.047 32.256H91.125c-12.597-9.099-24.392-19.892-35.044-32.262C19.918 378.796.001 324.277.001 267.28h381.998c0 56.999-19.927 111.52-56.11 153.518zm-222.494 71.965c.189-.219.383-.428.572-.646h174.082c.19.219.386.431.576.652 19.315 22.429 31.488 50.363 35.204 80.167h33.807V612H34.366v-39.064h33.807c3.718-29.805 15.896-57.74 35.222-80.173z"/></svg>