<svg xmlns="http://www.w3.org/2000/svg" width="25" height="21"><path fill-rule="evenodd" d="M24.683 6.382c.017.363-.037.722-.158 1.057-.662 1.814-2.004 2.439-3.301 3.043-.916.426-1.781.83-2.457 1.653-.789.962-1.192 1.679-1.586 2.373-.568 1.005-1.103 1.952-2.589 3.425-1.698 1.681-3.781 2.57-6.024 2.57-3.217 0-6.496-1.921-7.629-4.468a7.024 7.024 0 0 1-.628-2.883v-2.633l.013-.012C.33 9.637.503 8.788.87 8c.988-2.125 3.223-3.745 6.461-4.683 2.147-.62 3.67-.696 4.895-.757.944-.047 1.689-.084 2.469-.343l.943-.316c1.897-.64 3.859-1.302 5.408-1.398 1.238-.073 2.32.471 3.018 1.469.397.567.588 1.208.601 1.833.006.008.016.014.024.026l-.006 2.551zm-1.699-3.656a2.081 2.081 0 0 0-1.719-.914l-.138.004c-1.375.085-3.253.719-5.069 1.332l-.949.318c-.949.315-1.816.359-2.819.408-1.217.061-2.594.129-4.593.708-2.862.829-4.81 2.203-5.633 3.973-.776 1.67-.386 3.265.078 4.31.805 1.811 3.429 3.686 6.425 3.686 1.889 0 3.651-.756 5.097-2.19 1.357-1.344 1.827-2.174 2.369-3.135.42-.745.855-1.513 1.715-2.562.867-1.056 1.957-1.564 2.918-2.012 1.2-.558 2.146-1 2.621-2.301.176-.483.06-1.106-.303-1.625zm-2.873 2.731c-1.034.482-2.323 1.082-3.381 2.37-.934 1.139-1.418 1.995-1.845 2.753-.515.911-.922 1.631-2.147 2.843-1.211 1.202-2.614 1.811-4.17 1.811-2.428 0-4.601-1.508-5.222-2.905-.354-.795-.656-1.999-.089-3.22.659-1.415 2.321-2.543 4.807-3.263 1.85-.535 3.146-.6 4.295-.657 1.053-.053 2.045-.102 3.166-.474l.957-.321c1.733-.585 3.526-1.19 4.783-1.267.34 0 .547.221.639.353.129.182.158.368.146.419-.264.727-.691.976-1.939 1.558zM8.451 7.925c-1.717 0-3.108.976-3.108 2.182 0 1.205 1.391 2.181 3.108 2.181 1.716 0 3.107-.976 3.107-2.181 0-1.206-1.391-2.182-3.107-2.182z"/></svg>