<svg xmlns="http://www.w3.org/2000/svg" width="612" height="606"><path fill-rule="evenodd" d="M534.674 303l74.216-128.505a22.984 22.984 0 0 0 0-22.995L528.033 11.497A23.003 23.003 0 0 0 508.113 0h-161.72c-8.22 0-15.81 4.384-19.92 11.497l-74.217 128.505H103.887a23.004 23.004 0 0 0-19.92 11.498L3.11 291.502a22.984 22.984 0 0 0 0 22.995L83.967 454.5a23.004 23.004 0 0 0 19.92 11.498h148.369l74.217 128.505A23.003 23.003 0 0 0 346.393 606h161.72c8.22 0 15.811-4.384 19.92-11.497L608.89 454.5a22.984 22.984 0 0 0 0-22.995L534.674 303zm-299.103-71.496h-95.864L98.415 303l47.932 82.99c6.352 10.998 2.583 25.062-8.419 31.412a22.9 22.9 0 0 1-11.48 3.084c-7.949 0-15.681-4.124-19.942-11.501l-54.572-94.488a22.984 22.984 0 0 1 0-22.995l54.572-94.488a23.006 23.006 0 0 1 19.921-11.497h109.144c12.704 0 23.003 10.296 23.003 22.995 0 12.699-10.299 22.992-23.003 22.992zm144.173 282.697c6.352 10.998 2.583 25.062-8.419 31.411a22.901 22.901 0 0 1-11.48 3.085c-7.95 0-15.678-4.124-19.942-11.501l-48.462-83.907a22.984 22.984 0 0 1 0-22.995l48.462-83.907c6.349-11.001 20.424-14.769 31.422-8.416 11.002 6.349 14.771 20.413 8.419 31.411l-41.822 72.41 41.822 72.409zm93.5-425.288h-88.776l-44.387 76.856c-4.26 7.377-11.992 11.5-19.942 11.5-3.901 0-7.858-.993-11.48-3.084-11.001-6.35-14.771-20.413-8.419-31.411l51.027-88.353a23.005 23.005 0 0 1 19.92-11.498h102.057c12.706 0 23.002 10.296 23.002 22.995 0 12.7-10.299 22.995-23.002 22.995z"/></svg>