<svg xmlns="http://www.w3.org/2000/svg" width="494" height="488"><path fill-rule="evenodd" d="M395.499 284.52C372.658 183.098 313.056 36.427 158.106.453c-6.285-1.453-12.918.996-16.741 6.254a16.192 16.192 0 0 0-1.991 3.678c-28.186-1.094-66.842 21.724-97.253 60.201C17.703 101.488 6.318 153.49 1.184 188.614a22.76 22.76 0 0 0 8.387 21.173 22.8 22.8 0 0 0 22.553 3.309c32.977-13.108 80.941-36.208 105.389-67.116 14.933-18.893 25.731-38.849 31.962-57.486C186.97 136.9 203.886 207.79 192.48 283.393a103.605 103.605 0 0 0-15.926-1.229c-56.84 0-102.925 46.078-102.925 102.922C73.629 441.928 119.713 488 176.554 488c56.809 0 102.911-46.072 102.911-102.914 0-39.755-22.553-74.239-55.543-91.384 18.036-105.191-15.043-200.901-37.528-250.508 109.463 44.394 156.367 161.201 176.324 246.078-40.537 12.979-69.894 50.966-69.894 95.814 0 55.557 45.042 100.584 100.589 100.584 55.56 0 100.587-45.027 100.587-100.584-.002-54.858-43.906-99.453-98.501-100.566zm-216.561 47.307c-22.89 1.797-39.39 11.53-49.04 28.928-7.686 13.857-8.345 27.746-8.351 27.885-.238 7.85-6.676 14.015-14.473 14.015-.15 0-.301-.002-.452-.007-8-.244-14.288-6.966-14.045-14.967.062-2.02.9-20.293 11.293-39.739 10.001-18.713 30.748-41.712 72.8-45.013 7.97-.628 14.958 5.335 15.583 13.315.626 7.979-5.334 14.956-13.315 15.583zm217.621 0c-22.891 1.797-39.391 11.53-49.041 28.928-7.686 13.857-8.344 27.746-8.35 27.885-.238 7.85-6.676 14.015-14.474 14.015-.15 0-.301-.002-.452-.007-8-.244-14.288-6.966-14.044-14.967.062-2.02.899-20.293 11.293-39.739 10-18.713 30.748-41.712 72.8-45.013 7.969-.628 14.957 5.335 15.583 13.315.625 7.979-5.336 14.956-13.315 15.583z"/></svg>